<svg width="24" height="25" viewBox="0 0 24 25" fill="none" xmlns="http://www.w3.org/2000/svg">
<g opacity="0.2">
<path d="M6.75 3.2334C7.30812 3.2334 7.86077 3.34333 8.37641 3.55691C8.89204 3.77049 9.36056 4.08355 9.75521 4.47819C10.1499 4.87284 10.4629 5.34136 10.6765 5.85699C10.8901 6.37263 11 6.92528 11 7.4834V11.7334H6.75C5.62283 11.7334 4.54183 11.2856 3.7448 10.4886C2.94777 9.69157 2.5 8.61057 2.5 7.4834C2.5 6.35623 2.94777 5.27522 3.7448 4.47819C4.54183 3.68117 5.62283 3.2334 6.75 3.2334ZM6.75 13.7334H11V17.9834C11 18.824 10.7507 19.6457 10.2837 20.3446C9.81675 21.0435 9.15299 21.5882 8.37641 21.9099C7.59982 22.2316 6.74529 22.3157 5.92087 22.1517C5.09645 21.9877 4.33917 21.583 3.7448 20.9886C3.15042 20.3942 2.74565 19.637 2.58166 18.8125C2.41768 17.9881 2.50184 17.1336 2.82351 16.357C3.14519 15.5804 3.68992 14.9166 4.38883 14.4497C5.08774 13.9827 5.90943 13.7334 6.75 13.7334ZM17.25 3.2334C18.3772 3.2334 19.4582 3.68117 20.2552 4.47819C21.0522 5.27522 21.5 6.35623 21.5 7.4834C21.5 8.61057 21.0522 9.69157 20.2552 10.4886C19.4582 11.2856 18.3772 11.7334 17.25 11.7334H13V7.4834C13 6.35623 13.4478 5.27522 14.2448 4.47819C15.0418 3.68117 16.1228 3.2334 17.25 3.2334ZM13 13.7334H17.25C18.0906 13.7334 18.9123 13.9827 19.6112 14.4497C20.3101 14.9166 20.8548 15.5804 21.1765 16.357C21.4982 17.1336 21.5823 17.9881 21.4183 18.8125C21.2544 19.637 20.8496 20.3942 20.2552 20.9886C19.6608 21.583 18.9036 21.9877 18.0791 22.1517C17.2547 22.3157 16.4002 22.2316 15.6236 21.9099C14.847 21.5882 14.1833 21.0435 13.7163 20.3446C13.2493 19.6457 13 18.824 13 17.9834V13.7334Z" fill="#0A1B12"/>
</g>
</svg>
