<svg width="24" height="25" viewBox="0 0 24 25" fill="none" xmlns="http://www.w3.org/2000/svg">
<g opacity="0.2" clip-path="url(#clip0)">
<path d="M8 18.7332H18.237L20 20.1182V9.73315H21C21.2652 9.73315 21.5196 9.83851 21.7071 10.026C21.8946 10.2136 22 10.4679 22 10.7332V24.2332L17.545 20.7332H9C8.73478 20.7332 8.48043 20.6278 8.29289 20.4403C8.10536 20.2527 8 19.9984 8 19.7332V18.7332ZM5.455 16.7332L1 20.2332V4.73315C1 4.46794 1.10536 4.21358 1.29289 4.02605C1.48043 3.83851 1.73478 3.73315 2 3.73315H17C17.2652 3.73315 17.5196 3.83851 17.7071 4.02605C17.8946 4.21358 18 4.46794 18 4.73315V16.7332H5.455Z" fill="#0A1B12"/>
</g>
<defs>
<clipPath id="clip0">
<rect width="24" height="24" fill="white" transform="translate(0 0.733154)"/>
</clipPath>
</defs>
</svg>
