<svg width="16" height="16" viewBox="0 0 16 16" fill="none" xmlns="http://www.w3.org/2000/svg">
<path d="M4.49984 1.66675C4.87192 1.66675 5.24035 1.74003 5.58411 1.88242C5.92786 2.02481 6.24021 2.23351 6.50331 2.49661C6.76641 2.75971 6.97511 3.07206 7.1175 3.41581C7.25989 3.75957 7.33317 4.128 7.33317 4.50008V7.33342H4.49984C3.74839 7.33342 3.02772 7.0349 2.49637 6.50355C1.96502 5.9722 1.66651 5.25153 1.66651 4.50008C1.66651 3.74863 1.96502 3.02797 2.49637 2.49661C3.02772 1.96526 3.74839 1.66675 4.49984 1.66675ZM4.49984 8.66675H7.33317V11.5001C7.33317 12.0605 7.167 12.6083 6.85567 13.0742C6.54434 13.5401 6.10183 13.9033 5.58411 14.1177C5.06638 14.3322 4.4967 14.3883 3.94708 14.279C3.39747 14.1696 2.89262 13.8998 2.49637 13.5036C2.10012 13.1073 1.83027 12.6025 1.72095 12.0528C1.61162 11.5032 1.66773 10.9335 1.88218 10.4158C2.09663 9.89809 2.45978 9.45558 2.92572 9.14425C3.39166 8.83292 3.93946 8.66675 4.49984 8.66675ZM11.4998 1.66675C12.2513 1.66675 12.972 1.96526 13.5033 2.49661C14.0347 3.02797 14.3332 3.74863 14.3332 4.50008C14.3332 5.25153 14.0347 5.9722 13.5033 6.50355C12.972 7.0349 12.2513 7.33342 11.4998 7.33342H8.6665V4.50008C8.6665 3.74863 8.96502 3.02797 9.49637 2.49661C10.0277 1.96526 10.7484 1.66675 11.4998 1.66675ZM8.6665 8.66675H11.4998C12.0602 8.66675 12.608 8.83292 13.074 9.14425C13.5399 9.45558 13.903 9.89809 14.1175 10.4158C14.3319 10.9335 14.3881 11.5032 14.2787 12.0528C14.1694 12.6025 13.8996 13.1073 13.5033 13.5036C13.1071 13.8998 12.6022 14.1696 12.0526 14.279C11.503 14.3883 10.9333 14.3322 10.4156 14.1177C9.89784 13.9033 9.45534 13.5401 9.14401 13.0742C8.83268 12.6083 8.6665 12.0605 8.6665 11.5001V8.66675Z" fill="white"/>
</svg>
