<svg width="24" height="25" viewBox="0 0 24 25" fill="none" xmlns="http://www.w3.org/2000/svg">
<g opacity="0.2">
<path d="M21 8.73305C21.5304 8.73305 22.0391 8.94377 22.4142 9.31884C22.7893 9.69391 23 10.2026 23 10.7331V14.7331C23 15.2635 22.7893 15.7722 22.4142 16.1473C22.0391 16.5223 21.5304 16.7331 21 16.7331H19.938C19.6942 18.6664 18.7533 20.4442 17.2917 21.7331C15.8302 23.0219 13.9486 23.733 12 23.7331V21.7331C13.5913 21.7331 15.1174 21.1009 16.2426 19.9757C17.3679 18.8505 18 17.3244 18 15.7331V9.73305C18 8.14176 17.3679 6.61563 16.2426 5.49041C15.1174 4.3652 13.5913 3.73305 12 3.73305C10.4087 3.73305 8.88258 4.3652 7.75736 5.49041C6.63214 6.61563 6 8.14176 6 9.73305V16.7331H3C2.46957 16.7331 1.96086 16.5223 1.58579 16.1473C1.21071 15.7722 1 15.2635 1 14.7331V10.7331C1 10.2026 1.21071 9.69391 1.58579 9.31884C1.96086 8.94377 2.46957 8.73305 3 8.73305H4.062C4.30603 6.79995 5.24708 5.02233 6.70857 3.73373C8.17007 2.44513 10.0516 1.73413 12 1.73413C13.9484 1.73413 15.8299 2.44513 17.2914 3.73373C18.7529 5.02233 19.694 6.79995 19.938 8.73305H21ZM7.76 16.5181L8.82 14.8221C9.77308 15.4191 10.8754 15.7349 12 15.7331C13.1246 15.7349 14.2269 15.4191 15.18 14.8221L16.24 16.5181C14.9693 17.3142 13.4995 17.7354 12 17.7331C10.5005 17.7354 9.03074 17.3142 7.76 16.5181Z" fill="#0A1B12"/>
</g>
</svg>
